<svg id="svg" version="1.1" xmlns="http://www.w3.org/2000/svg" xmlns:xlink="http://www.w3.org/1999/xlink" width="400" height="86.74698795180724" viewBox="0, 0, 400,86.74698795180724"><g id="svgg"><path id="path0" d="M230.278 15.778 C 230.217 15.839,230.167 18.539,230.167 21.778 L 230.167 27.667 224.542 27.669 C 217.652 27.672,218.167 27.563,218.167 29.019 L 218.167 30.167 217.018 30.167 C 215.701 30.167,215.667 30.203,215.667 31.579 C 215.667 32.549,215.552 32.667,214.602 32.667 C 213.462 32.667,213.427 32.769,213.325 36.445 L 213.233 39.750 213.200 36.228 C 213.162 32.223,213.282 32.507,211.633 32.502 L 210.849 32.500 210.799 31.375 L 210.750 30.250 209.583 30.167 L 208.417 30.083 208.368 28.964 C 208.305 27.531,209.177 27.641,198.369 27.701 C 188.329 27.756,189.173 27.618,189.169 29.208 L 189.167 30.167 188.007 30.167 L 186.848 30.167 186.790 31.375 C 186.757 32.072,186.719 31.615,186.700 30.298 C 186.670 28.221,186.637 27.996,186.342 27.838 C 186.124 27.721,182.602 27.678,175.634 27.707 L 165.250 27.750 165.147 28.333 C 165.083 28.696,165.036 28.314,165.022 27.325 C 164.996 25.436,164.924 25.333,163.633 25.333 L 162.667 25.333 162.667 24.283 C 162.667 22.972,162.529 22.833,161.224 22.833 L 160.182 22.833 160.133 21.708 L 160.083 20.583 158.958 20.534 L 157.833 20.485 157.833 19.608 C 157.833 17.935,159.109 18.091,144.889 18.031 C 138.029 18.003,132.173 18.025,131.874 18.081 L 131.332 18.182 131.374 38.549 L 131.417 58.917 137.333 58.917 L 143.250 58.917 143.294 52.958 L 143.338 47.000 148.460 46.985 C 151.278 46.977,153.958 46.921,154.417 46.860 L 155.250 46.750 155.299 45.630 L 155.348 44.509 157.716 44.463 L 160.083 44.417 160.132 43.311 L 160.181 42.205 161.269 42.135 C 162.555 42.053,162.661 41.939,162.664 40.625 L 162.667 39.667 163.571 39.667 C 164.172 39.667,164.564 39.579,164.738 39.405 C 164.976 39.167,165.002 40.004,165.017 48.613 C 165.026 53.822,165.085 58.271,165.149 58.500 L 165.265 58.917 171.112 58.960 L 176.960 59.004 177.061 58.627 C 177.117 58.420,177.163 54.069,177.164 48.958 L 177.167 39.667 180.375 39.692 C 182.140 39.705,183.246 39.762,182.833 39.817 L 182.083 39.917 182.043 44.083 C 181.994 49.050,181.986 49.017,183.380 49.227 L 184.333 49.371 184.333 51.569 C 184.333 54.151,184.342 54.167,185.783 54.167 L 186.833 54.167 186.833 55.333 L 186.833 56.500 188.000 56.500 L 189.167 56.500 189.167 57.550 C 189.167 58.992,189.180 59.000,191.783 59.000 L 194.000 59.000 194.000 59.967 C 194.000 60.498,194.090 61.023,194.200 61.133 C 194.494 61.427,203.317 61.419,203.410 61.125 C 203.446 61.010,203.524 60.485,203.583 59.958 L 203.691 59.000 205.804 58.997 C 208.338 58.994,208.269 59.030,208.418 57.632 L 208.537 56.514 209.644 56.466 L 210.750 56.417 210.799 55.299 L 210.848 54.182 211.966 54.132 L 213.083 54.083 213.174 51.667 L 213.264 49.250 213.299 51.438 C 213.339 53.956,213.348 53.974,214.731 54.117 L 215.652 54.212 215.701 55.314 L 215.750 56.417 216.917 56.500 L 218.083 56.583 218.167 57.750 L 218.250 58.917 219.370 58.966 L 220.491 59.015 220.600 59.838 C 220.794 61.306,220.597 61.243,225.181 61.303 C 229.828 61.364,229.999 61.342,230.002 60.705 C 230.003 60.455,230.050 59.969,230.107 59.625 L 230.210 59.000 237.033 59.000 C 241.417 59.000,243.970 58.938,244.178 58.827 C 244.478 58.667,244.502 58.428,244.532 55.286 C 244.562 52.130,244.570 52.052,244.657 54.048 C 244.763 56.480,244.771 56.493,246.125 56.497 L 247.000 56.500 247.000 57.550 C 247.000 58.992,247.014 59.000,249.617 59.000 L 251.833 59.000 251.833 59.967 C 251.833 61.378,251.694 61.333,256.075 61.332 C 261.165 61.331,261.325 61.279,261.331 59.627 L 261.333 59.004 267.375 58.960 L 273.417 58.917 273.505 55.500 C 273.554 53.621,273.610 52.397,273.630 52.780 C 273.674 53.621,274.012 53.999,274.720 54.002 C 275.922 54.007,276.000 54.090,276.000 55.353 L 276.000 56.500 277.167 56.500 L 278.333 56.500 278.333 57.577 C 278.333 58.963,278.405 59.000,281.072 59.000 L 283.167 59.000 283.167 59.815 C 283.167 61.378,283.069 61.349,288.167 61.296 L 292.583 61.250 292.667 60.167 L 292.750 59.083 295.986 58.968 C 300.043 58.824,299.808 58.988,299.949 56.197 L 300.051 54.167 300.928 54.167 C 302.429 54.167,302.333 54.416,302.333 50.480 L 302.333 46.996 296.375 47.040 L 290.417 47.083 290.367 48.208 L 290.318 49.333 289.183 49.333 L 288.047 49.333 287.941 48.319 C 287.802 46.987,287.816 47.000,286.573 47.000 L 285.500 47.000 285.500 44.500 L 285.500 42.000 286.333 42.000 C 287.491 42.000,287.827 41.640,287.853 40.375 C 287.874 39.378,288.109 38.092,288.147 38.771 C 288.175 39.283,288.517 39.498,289.482 39.612 L 290.333 39.713 290.333 40.678 C 290.333 42.246,290.012 42.167,296.387 42.164 C 299.428 42.163,302.008 42.103,302.120 42.032 C 302.260 41.943,302.340 41.177,302.375 39.577 C 302.404 38.297,302.443 40.979,302.463 45.536 C 302.505 54.956,302.367 54.167,303.976 54.167 L 304.808 54.167 304.862 56.403 C 304.928 59.114,304.719 58.904,307.430 58.975 L 309.667 59.033 309.667 59.861 C 309.667 61.419,309.386 61.333,314.511 61.333 C 317.964 61.333,319.026 61.285,319.076 61.125 C 319.113 61.010,319.191 60.485,319.250 59.958 L 319.357 59.000 320.304 58.997 C 320.824 58.996,321.360 58.925,321.494 58.840 C 321.646 58.744,321.813 58.747,321.935 58.848 C 322.176 59.048,335.742 58.980,335.945 58.778 C 336.021 58.702,336.108 57.590,336.138 56.307 C 336.184 54.313,336.229 53.988,336.443 54.070 C 336.581 54.123,337.100 54.167,337.597 54.167 L 338.500 54.167 338.502 54.958 C 338.507 56.449,338.551 56.500,339.853 56.500 L 341.000 56.500 341.000 57.649 C 341.000 59.055,340.891 59.000,343.680 59.000 L 345.833 59.000 345.833 59.980 C 345.833 61.398,345.636 61.345,350.770 61.294 L 355.250 61.250 355.299 60.125 L 355.349 59.000 357.494 59.000 C 360.273 59.000,360.167 59.054,360.167 57.656 L 360.167 56.515 361.375 56.466 L 362.583 56.417 362.633 55.292 L 362.682 54.167 363.577 54.167 C 364.070 54.167,364.581 54.125,364.713 54.075 C 364.911 53.998,364.973 54.394,365.073 56.366 C 365.140 57.677,365.232 58.787,365.278 58.833 C 365.469 59.025,379.036 59.011,379.268 58.818 C 379.462 58.658,379.500 56.871,379.500 47.980 L 379.500 37.333 380.750 37.333 L 382.000 37.333 382.000 48.066 C 382.000 57.698,382.027 58.808,382.264 58.899 C 382.716 59.072,395.443 59.013,395.911 58.836 L 396.343 58.671 396.297 45.905 C 396.244 31.601,396.343 32.667,395.065 32.667 C 394.115 32.667,394.000 32.549,394.000 31.579 C 394.000 30.203,393.966 30.167,392.649 30.167 L 391.500 30.167 391.500 29.018 C 391.500 28.124,391.441 27.847,391.236 27.768 C 390.870 27.627,366.180 27.673,365.667 27.815 C 365.254 27.929,365.249 27.955,365.145 30.257 C 365.088 31.536,365.032 32.642,365.020 32.714 C 365.009 32.786,364.855 32.767,364.678 32.673 C 364.500 32.578,363.975 32.500,363.511 32.500 L 362.667 32.500 362.667 31.597 C 362.667 30.201,362.635 30.167,361.316 30.167 L 360.167 30.167 360.167 29.089 C 360.167 27.571,360.807 27.667,350.688 27.667 C 340.426 27.667,341.000 27.583,341.000 29.079 L 341.000 30.167 339.855 30.167 L 338.710 30.167 338.607 30.792 C 338.550 31.135,338.503 31.660,338.502 31.958 L 338.500 32.500 337.510 32.500 C 336.901 32.500,336.468 32.580,336.385 32.708 C 336.311 32.823,336.212 31.851,336.167 30.550 C 336.110 28.927,336.015 28.114,335.867 27.966 C 335.518 27.618,322.296 27.561,321.951 27.907 C 321.730 28.127,321.675 28.128,321.496 27.912 C 321.335 27.718,320.823 27.667,319.066 27.667 L 316.840 27.667 316.795 24.125 L 316.750 20.583 309.853 20.540 C 304.899 20.509,302.891 20.550,302.728 20.685 C 302.549 20.834,302.500 21.602,302.500 24.263 L 302.500 27.652 301.292 27.701 L 300.083 27.750 300.036 29.000 L 299.988 30.250 298.744 30.195 L 297.500 30.140 297.500 28.990 C 297.500 27.516,298.437 27.641,287.797 27.700 C 277.726 27.756,278.476 27.640,278.366 29.164 L 278.293 30.167 277.410 30.167 C 276.017 30.167,276.000 30.185,276.000 31.660 C 276.000 32.370,275.952 33.406,275.894 33.963 L 275.789 34.974 274.644 35.029 L 273.499 35.083 273.500 31.562 C 273.500 28.785,273.452 28.001,273.272 27.852 C 273.109 27.716,271.404 27.675,267.314 27.706 L 261.583 27.750 261.540 38.542 L 261.498 49.333 260.268 49.333 L 259.038 49.333 258.925 48.428 C 258.790 47.345,258.627 47.186,257.518 47.054 L 256.667 46.954 256.667 37.592 C 256.667 30.365,256.619 28.166,256.458 27.946 C 256.268 27.686,255.758 27.666,250.500 27.706 L 244.750 27.750 244.654 28.917 C 244.602 29.558,244.546 26.885,244.529 22.976 C 244.503 16.667,244.470 15.858,244.236 15.768 C 243.876 15.629,230.417 15.639,230.278 15.778 M321.846 15.902 C 321.617 16.177,321.658 24.881,321.889 25.111 C 322.206 25.427,335.463 25.275,335.786 24.953 C 336.202 24.536,336.246 16.091,335.833 15.830 C 335.394 15.552,322.080 15.620,321.846 15.902 M13.875 18.121 L 13.333 18.188 13.333 19.324 L 13.333 20.460 11.248 20.529 C 8.520 20.620,8.601 20.538,8.525 23.256 L 8.466 25.333 7.324 25.333 L 6.182 25.333 6.081 25.875 C 6.025 26.173,6.003 32.420,6.032 39.757 C 6.089 54.683,6.033 53.997,7.212 54.002 C 8.385 54.007,8.500 54.111,8.500 55.166 C 8.500 56.337,8.635 56.466,9.922 56.532 L 10.917 56.583 10.966 57.440 C 11.047 58.824,11.104 58.846,14.904 58.956 L 18.167 59.051 18.167 59.992 C 18.167 61.386,17.981 61.333,22.917 61.333 C 27.862 61.333,27.667 61.389,27.667 59.967 L 27.667 59.000 30.792 58.983 C 34.894 58.962,34.738 59.015,34.799 57.625 L 34.848 56.514 36.049 56.465 L 37.250 56.417 37.299 55.292 L 37.349 54.167 38.185 54.167 C 39.576 54.167,39.667 54.056,39.667 52.351 C 39.667 51.542,39.714 50.533,39.772 50.109 L 39.878 49.339 40.668 49.234 C 41.751 49.090,41.882 48.975,42.010 48.053 C 42.072 47.611,42.133 52.500,42.147 58.917 C 42.161 65.333,42.232 70.678,42.305 70.794 C 42.410 70.958,43.714 70.995,48.261 70.961 L 54.083 70.917 54.170 65.000 C 54.217 61.746,54.274 59.512,54.295 60.036 C 54.348 61.352,54.279 61.333,59.041 61.333 C 63.758 61.333,63.679 61.356,63.795 59.966 L 63.871 59.048 65.894 58.934 C 68.554 58.785,68.500 58.838,68.622 56.196 L 68.715 54.181 69.816 54.132 L 70.917 54.083 70.960 43.455 L 71.002 32.826 70.574 32.663 C 70.338 32.573,69.816 32.500,69.413 32.500 L 68.682 32.500 68.633 31.375 L 68.583 30.250 67.475 30.201 L 66.366 30.152 66.249 28.992 C 66.101 27.511,67.438 27.650,53.833 27.704 L 42.250 27.750 42.167 29.250 C 42.120 30.097,42.031 30.623,41.964 30.458 C 41.869 30.227,41.640 30.167,40.862 30.167 L 39.881 30.167 39.731 26.819 C 39.559 23.000,39.559 23.000,38.135 23.000 L 37.333 23.000 37.333 22.012 C 37.333 20.722,37.114 20.500,35.842 20.500 L 34.875 20.500 34.798 19.577 C 34.699 18.380,34.609 18.310,32.968 18.153 C 31.588 18.021,14.904 17.993,13.875 18.121 M25.367 28.792 L 25.417 29.917 26.542 29.966 L 27.667 30.015 27.667 38.508 L 27.667 47.000 26.673 47.000 C 25.498 47.000,25.333 47.183,25.333 48.489 L 25.333 49.333 22.917 49.333 L 20.500 49.333 20.500 48.430 C 20.500 47.034,20.468 47.000,19.149 47.000 L 18.000 47.000 18.000 39.769 L 18.000 32.539 18.375 32.438 C 18.581 32.383,18.982 32.337,19.266 32.336 C 20.139 32.332,20.295 31.978,20.428 29.708 L 20.547 27.667 22.933 27.667 L 25.318 27.667 25.367 28.792 M76.833 27.787 C 76.137 27.918,76.000 28.148,76.000 29.187 L 76.000 30.167 74.913 30.167 C 73.547 30.167,73.500 30.261,73.500 33.011 L 73.500 35.000 72.329 35.000 L 71.158 35.000 71.204 44.264 C 71.255 54.628,71.176 54.000,72.435 54.000 C 73.385 54.000,73.500 54.117,73.500 55.088 C 73.500 56.464,73.534 56.500,74.851 56.500 L 76.000 56.500 76.000 57.577 C 76.000 58.963,76.071 59.000,78.739 59.000 L 80.833 59.000 80.833 59.994 C 80.833 61.382,80.620 61.333,86.750 61.333 C 92.866 61.333,92.667 61.378,92.667 60.019 L 92.667 59.051 95.930 58.956 C 99.654 58.848,99.812 58.794,99.861 57.599 C 99.884 57.045,99.908 57.105,99.986 57.917 L 100.083 58.917 106.000 58.917 L 111.917 58.917 111.960 49.292 L 112.003 39.667 112.460 39.666 C 113.899 39.663,114.302 39.290,114.354 37.917 C 114.373 37.401,114.406 37.490,114.499 38.309 C 114.639 39.540,114.768 39.661,115.958 39.664 L 116.833 39.667 116.836 49.125 C 116.837 54.327,116.899 58.678,116.972 58.794 C 117.076 58.958,118.381 58.995,122.928 58.961 L 128.750 58.917 128.793 44.805 C 128.841 28.807,128.968 30.167,127.424 30.167 L 126.539 30.167 126.470 29.090 C 126.433 28.497,126.343 27.954,126.270 27.881 C 126.047 27.658,100.499 27.627,100.230 27.850 C 100.053 27.997,99.996 28.673,99.983 30.812 C 99.974 32.336,99.915 33.399,99.852 33.173 C 99.725 32.717,99.289 32.542,98.216 32.517 L 97.515 32.500 97.466 31.375 L 97.417 30.250 96.292 30.201 L 95.167 30.151 95.164 29.201 C 95.160 27.618,95.994 27.753,86.048 27.729 C 81.209 27.717,77.063 27.743,76.833 27.787 M148.225 28.681 C 148.364 30.013,148.351 30.000,149.593 30.000 L 150.667 30.000 150.667 32.500 L 150.667 35.000 147.000 35.000 L 143.333 35.000 143.333 31.333 L 143.333 27.667 145.726 27.667 L 148.119 27.667 148.225 28.681 M321.664 43.458 C 321.662 47.585,321.605 49.826,321.504 49.667 C 321.379 49.469,320.871 49.405,319.090 49.362 L 316.833 49.308 316.833 43.320 L 316.833 37.333 319.073 37.333 C 320.387 37.333,321.356 37.264,321.417 37.167 C 321.473 37.075,321.553 37.000,321.593 37.000 C 321.634 37.000,321.666 39.906,321.664 43.458 M56.863 39.453 C 56.971 39.582,57.426 39.667,58.020 39.667 L 59.000 39.667 59.000 43.310 L 59.000 46.954 58.149 47.054 C 57.040 47.186,56.877 47.345,56.741 48.428 L 56.628 49.333 55.397 49.333 L 54.167 49.333 54.167 44.500 L 54.167 39.667 54.725 39.667 C 56.082 39.667,56.459 39.301,56.529 37.917 C 56.553 37.448,56.581 37.546,56.624 38.244 C 56.658 38.791,56.765 39.335,56.863 39.453 M85.759 38.789 C 85.830 39.220,85.954 39.358,86.382 39.482 C 86.911 39.635,86.908 39.637,86.167 39.652 L 85.417 39.667 85.491 38.459 C 85.532 37.794,85.589 37.475,85.618 37.750 C 85.648 38.025,85.711 38.492,85.759 38.789 M199.263 39.333 C 199.361 39.430,199.830 39.555,200.304 39.611 L 201.167 39.713 201.167 44.523 L 201.167 49.333 198.750 49.333 L 196.333 49.333 196.333 44.500 L 196.333 39.667 196.906 39.667 C 198.232 39.667,198.652 39.293,198.682 38.083 L 198.703 37.250 198.893 38.203 C 198.998 38.727,199.164 39.236,199.263 39.333 M230.167 43.333 L 230.167 49.333 228.924 49.333 L 227.682 49.333 227.633 48.208 L 227.583 47.083 226.458 47.034 L 225.333 46.985 225.333 44.595 C 225.333 41.911,225.282 42.007,226.702 42.002 C 227.562 41.999,227.667 41.712,227.667 39.344 L 227.667 37.333 228.917 37.333 L 230.167 37.333 230.167 43.333 M351.036 39.274 C 351.165 39.403,351.659 39.554,352.135 39.611 L 353.000 39.713 353.000 44.523 L 353.000 49.333 350.583 49.333 L 348.167 49.333 348.167 44.523 L 348.167 39.713 349.042 39.611 C 350.132 39.484,350.492 39.098,350.521 38.023 L 350.542 37.250 350.672 38.145 C 350.743 38.637,350.907 39.145,351.036 39.274 M99.987 50.458 C 99.980 51.444,99.936 52.156,99.890 52.042 C 99.835 51.905,99.436 51.833,98.736 51.833 C 97.739 51.833,97.667 51.808,97.665 51.458 C 97.664 51.252,97.616 50.690,97.559 50.208 L 97.454 49.333 98.380 49.333 C 99.459 49.333,99.833 49.221,99.833 48.899 C 99.833 48.771,99.871 48.667,99.917 48.667 C 99.962 48.667,99.994 49.473,99.987 50.458 " stroke="none" fill="#04843c" fill-rule="evenodd"></path><path id="path1" d="" stroke="none" fill="#08843c" fill-rule="evenodd"></path></g></svg>